<svg xmlns="http://www.w3.org/2000/svg" viewBox="0 0 500 450" width="500" height="450" role="img" aria-label="Pyramide féodale : hiérarchie du royaume de France">
  <defs>
    <style>
      text { font-family: 'system-ui', sans-serif; text-anchor: middle; }
      .title { fill: #1a1a2e; font-size: 14px; font-weight: 700; }
      .label { fill: #fff; font-size: 13px; font-weight: 600; }
      .sub { fill: #e2e8f0; font-size: 10px; }
      .pct { fill: #cbd5e1; font-size: 9px; }
    </style>
  </defs>

  <!-- Background -->
  <rect width="500" height="450" fill="#1a1a2e" rx="8"/>

  <!-- Title -->
  <text x="250" y="24" class="title">Pyramide féodale</text>

  <!-- Tier 1: King (top) -->
  <polygon points="250,40 200,80 300,80" fill="#1a5276" stroke="#2980b9" stroke-width="1.5"/>
  <text x="250" y="62" class="label">Roi</text>
  <text x="250" y="75" class="sub">Suzerain suprême</text>

  <!-- Connector -->
  <line x1="250" y1="80" x2="250" y2="95" stroke="#4a5568" stroke-width="1.5"/>

  <!-- Tier 2: High nobles -->
  <polygon points="250,95 140,140 360,140" fill="#2471a3" stroke="#2980b9" stroke-width="1.5"/>
  <text x="250" y="116" class="label">Grands vassaux</text>
  <text x="250" y="130" class="sub">Ducs, comtes</text>
  <text x="250" y="138" class="pct">~1 %</text>

  <!-- Connector -->
  <line x1="250" y1="140" x2="250" y2="155" stroke="#4a5568" stroke-width="1.5"/>

  <!-- Tier 3: Lesser nobles -->
  <polygon points="250,155 90,200 410,200" fill="#2e86c1" stroke="#5dade2" stroke-width="1.5"/>
  <text x="250" y="175" class="label">Arrière-vassaux</text>
  <text x="250" y="189" class="sub">Vicomtes, barons, châtelains</text>
  <text x="250" y="200" class="pct">~5 %</text>

  <!-- Connector -->
  <line x1="250" y1="200" x2="250" y2="215" stroke="#4a5568" stroke-width="1.5"/>

  <!-- Tier 4: Knights -->
  <polygon points="250,215 40,260 460,260" fill="#3498db" stroke="#5dade2" stroke-width="1.5"/>
  <text x="250" y="235" class="label">Chevaliers</text>
  <text x="250" y="249" class="sub">Petits seigneurs, guerriers</text>
  <text x="250" y="260" class="pct">~4 %</text>

  <!-- Connector -->
  <line x1="250" y1="260" x2="250" y2="275" stroke="#4a5568" stroke-width="1.5"/>

  <!-- Tier 5: Peasants (base, widest) -->
  <polygon points="250,275 10,330 490,330" fill="#1e8449" stroke="#27ae60" stroke-width="1.5"/>
  <text x="250" y="297" class="label">Paysan·nes</text>
  <text x="250" y="311" class="sub">Serfs et vilain·es</text>
  <text x="250" y="325" class="pct">~90 %</text>

  <!-- Bottom flow arrow -->
  <polygon points="250,340 230,360 270,360" fill="#6c3483" opacity="0.6"/>
  <text x="250" y="375" class="sub" fill="#a569bd">Service militaire</text>

  <!-- Upward arrow -->
  <polygon points="250,385 230,365 270,365" fill="#b7950b" opacity="0.6"/>
  <text x="250" y="410" class="sub" fill="#f4d03f">Protection et terres</text>

  <!-- Source note -->
  <text x="250" y="435" fill="#4a5568" font-size="8" font-family="system-ui, sans-serif" text-anchor="middle">Source : Encyclopædia Britannica</text>
</svg>
